<svg xmlns="http://www.w3.org/2000/svg" viewBox="0 0 1024 1024" width="1024" height="1024">
  <title>PITCHR</title>
  <path fill="#FF6A2B" fill-rule="evenodd" d="M 176.04,808.37 A 448 448 0 1 1 215.63,847.96 L 135.82,927.78 A 28 28 0 1 1 96.22,888.18 L 176.04,808.37 Z M 249.65,813.95 A 400 400 0 1 0 210.05,774.35 L 266.79,717.61 A 320 320 0 1 1 306.39,757.21 L 249.65,813.95 Z M 340.49,723.11 A 272 272 0 1 0 300.89,683.51 L 357.89,626.51 A 192 192 0 1 1 397.49,666.11 L 340.49,723.11 Z M 431.92,631.68 A 144 144 0 1 0 392.32,592.08 L 424.32,560.08 L 398.86,534.63 L 457.09,522.98 A 56 56 0 1 1 501.02,566.91 L 489.37,625.14 L 463.92,599.68 L 431.92,631.68 Z"/>
</svg>
