<svg xmlns="http://www.w3.org/2000/svg" viewBox="0 0 1024 1024" width="1024" height="1024">
  <title>PITCHR</title>
  <path fill="#FF6A2B" fill-rule="evenodd" d="M 170.78,802.3 A 448 448 0 1 1 221.7,853.22 L 113.19,961.72 A 36 36 0 1 1 62.28,910.81 L 170.78,802.3 Z M 301.24,773.68 A 336 336 0 1 0 250.32,722.76 L 318.76,654.33 A 240 240 0 1 1 369.67,705.24 L 301.24,773.68 Z M 450.6,624.31 A 128 128 0 1 0 399.69,573.4 L 407.35,565.74 L 376.24,534.63 L 456.76,521.21 A 56 56 0 1 1 502.79,567.24 L 489.37,647.76 L 458.26,616.65 L 450.6,624.31 Z"/>
</svg>
